<?xml version="1.0" standalone="no"?>
<svg xmlns="http://www.w3.org/2000/svg" id="Ebene_1" version="1.1" viewBox="118 70 118 102" width="118" height="102">
  <g fill="#fff">
    <path d="M157.87,120.3c4.65,7.99,18.96,11.24,28.79,7.39,3.08-1.21,2.74-5.52-.52-6.21-2.18-.47-4.31-1.16-6.4-1.92-.22-.08-.44-.14-.67-.17-4.19-.63-8.62-.94-12.47-3.37-13.25-7.96-6.86-29.75,5.63-36.42,8.38-4.99,18.12-3.97,23.79,4.06,0,.01.02.03.03.04,2.33,2.82,5.81,6.5,4.59,10.5-1.63,5.68-11,3-16.01,2.19-.52-.08-1.06-.07-1.57.1-2.51.82-3.41,3.32-5.71,4.27-2.26.93-2.98,3.7-1.2,5.33,14.2,13.06,43.11-10.9,19.76-30.02-.1-.08-.2-.16-.3-.23-23.84-16.46-53.05,24.29-37.88,44.25.06.07.11.15.15.23Z"/>
    <path d="M228.71,121.96c-10.27-11.84-23.73,8.43-31.7,15.13-.07.06-.14.11-.21.16-8.41,6.06-18.86,13.7-29.27,7.59-.06-.04-.13-.07-.19-.1-15.06-6.99-14.4-18.32-32.83-21.73-2.73-.5-4.78,2.35-3.36,4.65,7.25,11.77,24.4,24.49,38.19,25.33.17.01.33,0,.49,0,7.76-.65,16.36-.28,23.9-1.88.17-.04.32-.08.48-.14,10.09-3.66,34.27-15.35,35.24-26.86.07-.78-.22-1.55-.74-2.15Z"/>
  </g>
  <path d="M226.45,166.15c-3.19-.63-6.99-1.41-10.35-2.06-6.68-1.18-13.8-1.65-21.09-1.88-7.97-.28-14.1.34-21.68.33-9.41-.15-19.14-1.04-28.42-.15-7.86.55-15.9,2.82-13.48,5.68,3.46,3.3,15.46,2.91,24.37,2.93,4.72-.02,8.85.01,13.29-.12,7.13-.3,13.57-.64,21.4-.67,7.96-.19,16.15.73,24.06.17,4.48-.41,9.79-.79,13.13-1.86,2.48-.74,1.61-1.79-1.13-2.34l-.11-.02Z" fill="#fff"/>
</svg>
